<svg xmlns="http://www.w3.org/2000/svg" xmlns:xlink="http://www.w3.org/1999/xlink" width="540" height="525" fill="none" xmlns:v="https://vecta.io/nano"><style><![CDATA[.B{fill:#222f65}.C{fill:#3f3d56}.D{fill-rule:evenodd}.E{fill:#f0f0f0}.F{fill:#2f2e41}.G{fill:#ffb8b8}]]></style><path d="M125.187 397.963L167 331.841l-93.641-59.878L25 348.436l77.453 49.527h22.734 0z" class="E"/><path d="M80 416.963h103v-20H80v20zm101.662-1.29H81.338v-17.42h100.324v17.42z" class="C D"/><g class="B"><use xlink:href="#B"/><use xlink:href="#B" x="-20"/><use xlink:href="#B" x="-38"/><use xlink:href="#B" x="-57"/><use xlink:href="#B" x="-76"/></g><path d="M307.462 185.904v-51.075H333v-24.866H208v125h106.855v-12.222a17.35 17.35 0 0 1 17.348-17.348H333v-19.489h-25.538zM47.65 10.568L87.432.65l9.919 39.782-39.782 9.919z" class="E"/><path d="M362 432.963h84v17h-84z" class="B"/><path d="M340 346.963h123v16H340z" class="E"/><g class="C"><path d="M0 523.963h524v1H0z"/><path d="M331.035 524.963h152.93c9.956-.011 18.024-8.076 18.035-18.027V222.989c-.011-9.951-8.079-18.015-18.035-18.026h-152.93c-9.956.011-18.024 8.075-18.035 18.026v283.947c.011 9.951 8.079 18.016 18.035 18.027zm-16.69-301.974a16.71 16.71 0 0 1 16.69-16.682h152.93a16.71 16.71 0 0 1 16.69 16.682v283.947a16.71 16.71 0 0 1-16.69 16.682h-152.93a16.71 16.71 0 0 1-16.69-16.682V222.989zM386 214.963a4 4 0 0 0 4 4c2.208-.002 3.998-1.792 4-4a4 4 0 1 0-8 0zm1.333 0a2.67 2.67 0 0 1 2.667-2.667 2.67 2.67 0 0 1 2.667 2.667A2.67 2.67 0 0 1 390 217.63a2.67 2.67 0 0 1-2.667-2.667z" class="D"/><path d="M400 213.963h30v1h-30z"/></g><path d="M491 223.963v54c-29.823-.001-53.999-24.177-54-54h54z" class="B"/><path d="M325 506.963h166v-283H325v283zm164.656-1.344H326.344V225.307h163.312v280.312z" class="C D"/><use xlink:href="#C" opacity=".1" fill="#000"/><use xlink:href="#C" x="-3" y="2" class="B"/><g class="C"><path d="M332 234.963h26v9h-26zm14 90h26v9h-26z"/><path d="M347 359.963h124v-17H347v17zm122.652-1.308H348.348v-14.384h121.304v14.384z" class="D"/></g><path d="M340 397.963h123v16H340z" class="E"/><g class="C"><path d="M346 374.963h26v9h-26z"/><path d="M347 410.963h124v-17H347v17zm122.652-1.308H348.348v-14.384h121.304v14.384zM366 445.963h85v-18h-85v18zm83.651-1.286h-82.302v-15.428h82.302v15.428z" class="D"/></g><use xlink:href="#D" class="B"/><use xlink:href="#E" opacity=".1" fill="#000"/><g class="B"><use xlink:href="#B" x="291" y="-51"/><use xlink:href="#D" y="50"/></g><use xlink:href="#E" y="51" opacity=".1" fill="#000"/><use xlink:href="#B" x="291" class="B"/><path d="M315 141.963h35v35h-35z" class="E"/><path d="M443 158.963a8 8 0 0 0 8 8 8.01 8.01 0 0 0 8-8 8 8 0 1 0-16 0zm1.333 0a6.67 6.67 0 0 1 6.667-6.667c3.68.004 6.662 2.987 6.667 6.667A6.67 6.67 0 0 1 451 165.63a6.67 6.67 0 0 1-6.667-6.667zM257 279.963h17v-17h-17v17zm15.692-1.308h-14.384v-14.384h14.384v14.384zM523 410.963h17v-17h-17v17zm15.692-1.308h-14.384v-14.384h14.384v14.384z" class="C D"/><path d="M195 293.867l2.998 1.626 10.2 5.536 16.467 8.934 9.597-17.929c1.825-3.403 2.232-7.396 1.13-11.101s-3.622-6.815-7.005-8.647c-7.343-3.993-16.406-2.754-22.427 3.064l-.005.006a19.34 19.34 0 0 0-3.612 4.786L195 293.867z" class="F"/><path d="M240 474.043l-1.931 22.88-7.242 1.04-4.827-26 14 2.08h0z" class="G"/><path d="M228.352 498.581s9.575-5.132 11.591-1.026c0 0-1.512 12.316 4.536 13.856s8.568 12.316 0 13.342-14.111-2.052-17.135-2.052 0-10.777 0-10.777l1.008-13.343z" class="F"/><path d="M179 474.043l1.931 22.88 7.242 1.04 4.827-26-14 2.08h0z" class="G"/><path d="M191.648 498.581s-9.575-5.132-11.591-1.026c0 0 1.512 12.316-4.536 13.856s-8.568 12.316 0 13.342 14.111-2.052 17.135-2.052 0-10.777 0-10.777l-1.008-13.343z" class="F"/><g class="G"><path d="M219.5 297.963c7.456 0 13.5-6.044 13.5-13.5s-6.044-13.5-13.5-13.5-13.5 6.044-13.5 13.5 6.044 13.5 13.5 13.5z"/><path d="M179 309.763l10.495 16.694 12.493-1.012 20.489 1.518 3.514-7.725c.864-1.902 1.529-3.891 1.983-5.934.5-3.541-6.496-7.082-6.496-7.082l-.735-.162-2.578-.744c-2.324-.799-5.118-2.155-5.682-4.153-1-3.541 6.496-8.6 6.496-8.6l-8.995-8.6s-7.991 11.236-17.696 13.795c-.563.151-1.133.269-1.709.354-.03.005-.055.011-.085.016C179.999 299.645 179 309.763 179 309.763z"/><path d="M184.264 305.963l-5.787 4.538s-4.736 21.683-3.158 27.734-.526 11.598-.526 12.606-4.735 38.827-4.735 38.827-9.471 20.17.526 18.153 6.314-22.187 6.314-22.187L189 350.337v-29.751l-4.736-14.623zm39.782 4l4.091 3 2.046 41.995 15.342 35.997s11.251 17.498 4.091 17.998-11.762-17.998-11.762-17.998l-13.808-34.497L222 322.962l2.046-12.999z"/></g><g class="F"><path d="M198.734 311.963s10.087 7.078 26.226 4.55c0 0 4.539 9.1 2.018 14.155s3.026 17.189 4.034 18.705 12.609 32.861 16.644 66.732 15.13 57.127 5.547 60.16-29.252 6.572-31.269 3.539-5.043-78.36-5.043-78.36l-5.548 28.817s7.565 49.037 2.017 50.049-40.347-2.023-39.339-8.089 11.096-37.916 11.096-37.916-.504-63.699 9.583-75.832c0 0 4.034-6.572-1.513-15.166s-5.044-22.244-5.044-22.244 4.035 0 10.591-9.1z"/><path d="M190 298.315l8.08 18.648 1.92-1.007-8.358-17.993-1.642.352h0zm28 7.648l6.452 14 1.548-.136-.526-2.383-4.838-10.74-2.636-.741zm-20.623-10.977c.989 3.266 3.79 5.605 7.107 5.937s6.505-1.41 8.09-4.419c-6.366-8.54-.906-13.905 9.436-17.963 1.593-3.034 1.241-6.755-.891-9.418-5.773-.758-11.571 1.201-15.776 5.329l-.005.005-7.347 13.982a8.65 8.65 0 0 0-.614 6.547h0z"/></g><path d="M212.5 288.963c.828 0 1.5-1.343 1.5-3s-.672-3-1.5-3-1.5 1.343-1.5 3 .672 3 1.5 3z" class="G"/><path d="M218 281.084l15.212 6.879 2.788-6.141c-.48-2.245-1.486-4.344-2.935-6.127l-10.47-4.732L218 281.084z" class="F"/><use xlink:href="#B" x="83" y="2" class="B"/><path d="M38.5 455.963a4.5 4.5 0 1 0 0-9 4.5 4.5 0 1 0 0 9z" fill="#ff6584"/><g class="C"><path d="M59 474.963h1v50h-1z"/><path d="M60 480.963a7 7 0 1 0 0-14 7 7 0 1 0 0 14zm-1 24s-.977-21.273-21-18.8z"/></g><defs ><path id="B" d="M171.5 413.963a6.5 6.5 0 1 0 0-13 6.5 6.5 0 1 0 0 13z"/><path id="C" d="M451.5 274.963c10.217 0 18.5-8.283 18.5-18.5s-8.283-18.5-18.5-18.5-18.5 8.283-18.5 18.5 8.283 18.5 18.5 18.5z"/><path id="D" d="M466 353.463a6.5 6.5 0 0 1-11.509 4.14l-.007-.006a6.5 6.5 0 0 1 5.884-10.575 6.5 6.5 0 0 1 5.444 4.9c.126.509.187 1.024.188 1.541h0z"/><path id="E" d="M466 353.088c0 2.9-1.765 5.487-4.411 6.469s-5.604.145-7.396-2.09l-.006-.007c-.123-.531-.186-1.076-.187-1.622 0-2.9 1.765-5.488 4.411-6.469s5.604-.145 7.396 2.09a7.03 7.03 0 0 1 .193 1.629h0z"/></defs></svg>