<svg xmlns="http://www.w3.org/2000/svg" xmlns:xlink="http://www.w3.org/1999/xlink" width="646" height="780" fill="none" xmlns:v="https://vecta.io/nano"><style><![CDATA[.B{fill:#505f98}.C{fill:#f4ad7d}.D{fill-rule:evenodd}]]></style><path opacity=".24" d="M183.078 688.613c-46.449 4.67-94.324 9.806-135.197 32.651-5.471 3.064-11.025 6.678-14.044 12.194-6.058 11.095.817 25.719 11.486 32.397s23.832 7.439 36.388 7.989c223.567 9.742 447.469 5.917 671.225 2.113 64.978-1.099 130.983-2.367 193.258-21.239 11.193-3.381 23.497-8.453 27.71-19.506 5.512-14.455-7.064-30.475-21.736-34.976s-30.331-1.141-45.506.824c-52.695 6.826-105.852-3.614-158.317-11.961-102.707-16.315-209.271-29.587-313.299-32.06-35.466-.824-65.754 11.476-100.465 16.337-50.117 7.058-101.115 10.165-151.504 15.237z" class="B"/><path d="M.369 255.326L116.198 19.408l68.987 33.781-115.83 235.918L.369 255.326z" fill="#fff"/><use xlink:href="#j" class="B"/><use xlink:href="#j" fill="url(#A)"/><path d="M41.33 219.445l14.113-28.835 46.464 22.683-14.113 28.835-46.464-22.683z" class="B"/><path d="M41.33 219.445l14.113-28.835 46.464 22.683-14.113 28.835-46.464-22.683z" fill="url(#B)"/><use xlink:href="#j" x="28.212" y="-57.229" class="B"/><use xlink:href="#j" x="28.212" y="-57.229" fill="url(#C)"/><path d="M69.563 162.237l14.114-28.835 46.464 22.683-14.113 28.835-46.464-22.683z" class="B"/><path d="M69.563 162.237l14.114-28.835 46.464 22.683-14.113 28.835-46.464-22.683z" fill="url(#D)"/><g class="B"><path d="M83.669 133.599l14.113-28.835 46.464 22.683-14.113 28.835-46.465-22.683z"/><path d="M97.784 105.01l14.113-28.835 46.465 22.682-14.114 28.835-46.464-22.683z"/><path d="M111.881 76.391l14.113-28.835 46.464 22.682-14.113 28.835-46.464-22.682z"/></g><path d="M96.196 108.598l14.113-28.835 46.465 22.683-14.114 28.835-46.464-22.683z" fill="url(#E)"/><path d="M110.321 79.97l14.113-28.835 46.464 22.682-14.113 28.835-46.464-22.683z" fill="url(#F)"/><path d="M410.837 573h98.068v82h-98.068z" class="B"/><path fill="url(#G)" d="M410.837 573h98.068v82h-98.068z"/><rect x="202.693" y="231" width="518.359" height="355" rx="9.37" class="B"/><path opacity=".65" d="M704.04 260.438v294.124a18.38 18.38 0 0 1-5.347 13.026c-3.44 3.459-8.114 5.406-12.99 5.412H234.039c-4.874-.011-9.545-1.96-12.983-5.418s-5.365-8.141-5.354-13.02V260.438c-.011-4.879 1.915-9.563 5.354-13.02s8.109-5.407 12.983-5.418h451.664c4.876.006 9.55 1.953 12.99 5.412a18.38 18.38 0 0 1 5.347 13.026z" fill="url(#H)"/><path d="M365.806 645h206.143v21H365.806z" class="B"/><path fill="url(#I)" d="M410.837 633h98.068v12h-98.068z"/><path d="M565.945 59.241v20.473l-12.71.105a57.15 57.15 0 0 1-10.538 26.362l10.855 11.17-14.88 14.249-10.686-11.022a59.2 59.2 0 0 1-21.856 9.136V143h-20.571v-12.971a58.03 58.03 0 0 1-24.47-9.535l-8.936 8.822-14.564-14.669 8.873-8.654a57.66 57.66 0 0 1-10.37-26.278h-14.247V59.241h14.753c1.829-8.148 5.426-15.8 10.538-22.422l-8.24-8.487 14.88-14.25 8.43 8.738a55.94 55.94 0 0 1 23.184-8.738V0h20.571v14.396c8.369 1.658 16.278 5.097 23.184 10.08l10.538-10.31 14.48 14.543-10.538 10.478c4.131 6.08 7.064 12.886 8.641 20.054h13.679zM459.803 72.15c-.023 19.061 15.5 34.532 34.671 34.555a34.75 34.75 0 0 0 24.577-10.061c6.522-6.469 10.184-15.252 10.178-24.411.024-19.061-15.499-34.532-34.67-34.555s-34.732 15.41-34.756 34.472zm182.194 21.204l-.918 12.042-7.513-.458c-1.126 5.537-3.631 10.703-7.283 15.02l5.864 7.063-9.349 7.708-5.759-6.937c-4.055 2.338-8.541 3.833-13.189 4.396l-.605 7.812-12.041-.896.584-7.625a33.98 33.98 0 0 1-13.898-6.687l-5.634 4.791-7.868-9.187 5.572-4.708c-2.928-4.812-4.614-10.274-4.904-15.896l-8.118-.625.898-12.021 8.618.646a34.03 34.03 0 0 1 7.116-12.729l-4.445-5.354L578.474 62l4.529 5.5a33.02 33.02 0 0 1 13.919-4.167l.626-8.333 12.041.896-.647 8.479a34.4 34.4 0 0 1 13.063 6.938l6.616-5.604 7.846 9.188-6.678 5.688a33.51 33.51 0 0 1 4.174 12.188l8.034.583zM579.3 96.243c-.855 11.193 7.537 20.96 18.749 21.819 5.394.425 10.735-1.315 14.84-4.834s6.635-8.528 7.03-13.915c.842-11.194-7.561-20.952-18.773-21.799S580.155 85.05 579.3 96.243z" class="B D"/><path d="M704.04 260.513V267H215.702v-6.487a18.52 18.52 0 0 1 5.354-13.073c3.439-3.472 8.11-5.429 12.985-5.44h451.66c4.877.006 9.551 1.961 12.991 5.434s5.365 8.179 5.348 13.079z" fill="url(#J)"/><path fill="url(#K)" d="M225.709 299h47.033v227h-47.033z"/><path fill="url(#L)" d="M343.791 315h221.153v209H343.791z"/><path fill="url(#M)" d="M394.826 413h7.005v9h-7.005z"/><path fill="url(#N)" d="M394.826 371h7.005v9h-7.005z"/><path fill="url(#O)" d="M299.76 413h7.005v9h-7.005z"/><path fill="url(#P)" d="M299.76 371h7.005v9h-7.005z"/><path fill="url(#Q)" d="M394.826 326h7.005v9h-7.005z"/><path fill="url(#R)" d="M300.761 326h7.005v9h-7.005z"/><path fill="url(#S)" d="M348.794 326h7.005v9h-7.005z"/><path fill="url(#T)" d="M348.794 413h7.005v9h-7.005z"/><g class="D"><path d="M312.769 411h78.054v-73h-78.054v73zm70.192-7.718h-62.33v-57.626h62.33v57.626z" class="B"/><path d="M312.769 411h78.054v-73h-78.054v73zm70.192-7.718h-62.33v-57.626h62.33v57.626z" fill="url(#U)"/></g><path fill="url(#V)" d="M596.966 279h100.069v100H596.966z"/><path fill="url(#W)" d="M596.966 389h100.069v100H596.966z"/><path opacity=".65" fill="url(#X)" d="M225.709 298h47.033v13h-47.033z"/><path d="M22.673 229.827L227.801 65.293l48.113 59.825L70.785 289.652l-48.112-59.825z" fill="#fff"/><path d="M51.397 234.455l25.067-20.22 32.582 40.287-25.067 20.22-32.582-40.287z" class="B"/><path d="M51.397 234.455l25.067-20.22 32.582 40.287-25.067 20.22-32.582-40.287z" fill="url(#Y)"/><path d="M75.014 214.689l25.033-20.129 32.434 40.23-25.032 20.129-32.435-40.23z" class="B"/><path d="M75.014 214.689l25.033-20.129 32.434 40.23-25.032 20.129-32.435-40.23z" fill="url(#Z)"/><path d="M99.958 194.761l25.032-20.128 32.435 40.23-25.032 20.128-32.435-40.23z" class="B"/><path d="M99.958 194.761l25.032-20.128 32.435 40.23-25.032 20.128-32.435-40.23z" fill="url(#a)"/><use xlink:href="#k" class="B"/><use xlink:href="#k" fill="url(#b)"/><g class="B"><path d="M151.006 154.389l25.067-20.22 32.583 40.287-25.068 20.22-32.582-40.287zm25.08-20.399l25.068-20.22 32.582 40.287-25.068 20.22-32.582-40.287z"/><path d="M199.693 115.051l25.033-20.128 32.435 40.23-25.033 20.128-32.435-40.23z"/></g><path d="M229.712 158.218L208.613 175l-31.938-40.218L197.774 118l31.938 40.218z" fill="url(#c)"/><use xlink:href="#k" x="71.85" y="-57.199" fill="url(#d)"/><use xlink:href="#l" class="B"/><use xlink:href="#l" fill="url(#e)"/><g class="B"><rect x="111.63" y="317" width="50.035" height="9" rx="2.245"/><path d="M136.336 399c-8.573 0-15.7-12.815-15.7-21.366V321h31.022v56.634c0 8.551-6.771 21.366-15.322 21.366z"/></g><rect x="111.63" y="317" width="50.035" height="9" rx="2.245" fill="url(#f)"/><path d="M136.336 399c-8.573 0-15.7-12.634-15.7-21.063V326h31.022v51.937c0 8.429-6.771 21.063-15.322 21.063z" fill="url(#g)"/><path d="M336.428 459c-.674-3.564-1.099-8.61.195-8.957 2.728-.768-.195 8.957-.195 8.957z" fill="#28353d"/><use xlink:href="#m" fill="#606161"/><use xlink:href="#m" fill="url(#h)"/><path d="M425.614 386.148c-.385-3.985-2.268-6.148-4.108-6.148s-2.973 2.12-2.588 6.148c.087 2.974 2.331 5.449 5.305 5.852 1.862 0 1.797-1.866 1.391-5.852zm32.394.011c.25-3.993 2.087-6.159 3.986-6.159s3.13 2.124 2.838 6.159c-.027 3.014-2.272 5.528-5.217 5.841-1.879 0-1.9-1.848-1.607-5.841z" fill="#ffcd9c"/><path d="M461.732 403.672c-.259 2.105-9.174 11.328-19.319 11.328s-18.521-8.423-20.291-11.792 5.353-46.703 9.476-50.324 20.831-1.243 22.234.674c3.367 4.527 9.001 41.712 7.9 50.114z" class="C"/><path d="M457.538 370.977c-1.379.662-6.795-13.135-7.931-15.452s-.953-4.696.426-5.358 3.408.704 4.544 3 4.32 17.169 2.961 17.81zm-30.37-.99c-1.431-.486 2.357-14.808 3.183-17.284s2.68-4.104 4.03-3.617 1.914 2.898 1.088 5.395-6.951 15.993-8.301 15.506z" fill="#ffcd9c"/><g class="C"><path d="M432.845 402h21.763l3.262 20.622c-11.856 6.383-18.769 5.679-28.02-1.408L432.845 402z"/><path d="M441.859 406.13c0-.38.905-.7 2.001-.7s2.001.32 2.001.7-.881.44-2.001.44-2.001-.04-2.001-.44z"/></g><g fill="#606161"><path d="M462.892 396.808c.824-4.914 2.168-40.1-1.128-44.757s-23.023-7.67-26.015-6.943c-6.699 1.623-5.528 6.409-5.528 6.409-1.991.03-3.941.567-5.658 1.559-2.298 1.539-7.133 23.714-3.274 40.484 1.734 7.542 8.563 14.1 20.357 14.421 14.525.384 20.249-5.085 21.246-11.173z"/><path d="M435.831 346.762a7.47 7.47 0 0 1 5.599-1.721c6.133-.033 12.217 1.099 17.935 3.335 3.17 1.112 6.049 2.935 8.42 5.332 2.387 2.465 3.486 5.919 2.968 9.326-1.053 5.013-6.315 8.114-8.041 12.936-1.39 3.867-.4 7.605-.358 11.493a58.54 58.54 0 0 1-.674 9.389c-.968 6.054-6.504 11.492-20.713 11.131-11.451-.319-18.082-6.84-19.766-14.339-2.28-12.446-1.682-25.255 1.747-37.429 6.172 1.433 12.486 2.146 18.819 2.124a80.43 80.43 0 0 0 19.934-2.337c1.116 6.501 1.095 19.522.737 29.251"/></g><path d="M400.702 418.954c-3.434.287-6.742 1.43-9.625 3.326-4.938 3.891-5.313 11.15-5.229 17.468a148.16 148.16 0 0 0 1.812 26.149c1.479 7.929 4.167 15.544 6.375 23.305 3.481 12.629 5.309 25.66 5.438 38.764 0 7.196-.125 15.104 4.354 20.731 4.896 6.109 13.563 7.301 21.355 7.741a332.14 332.14 0 0 0 33.23.271c7.417-.334 15.313-1.066 21.188-5.627 4.688-3.64 15.667-126.794 7.146-129.911s-17.688-3.912-26.73-4.665c-20.271-1.715-39.355-3.075-59.314 2.448z" class="B"/><path d="M464.521 674.291c-1.086 13.964-3.678 64.709-3.678 64.709l-6.605-.23c-4.536-24.38 2.759-52.038 0-83.871-1.652-19.434-9.343-56.903-14.381-57.153 1.505-12.525 9.97-10.646 9.97-10.646 6.157 9.194 11.467 18.926 15.865 29.078 5.037 13.192-.063 44.085-1.171 58.113z" fill="url(#i)"/><path d="M340.164 740.024a6.52 6.52 0 0 0-2.251 3.001 4.6 4.6 0 0 0 .271 2.94c1.166 2.361 3.376 4.054 5.984 4.585 2.576.49 5.215.581 7.819.268l8.341-.556a23.35 23.35 0 0 0 6.255-1.007 7.66 7.66 0 0 0 4.629-3.947 10.46 10.46 0 0 0 .563-4.339c0-6.805-2.418-12.335-9.967-10.67-7.906 1.466-15.334 4.803-21.644 9.725zm138.539 3.039c.947.696 1.666 1.646 2.067 2.734.214.885.13 1.814-.24 2.649-1.062 2.138-3.092 3.668-5.483 4.133-2.357.456-4.774.542-7.159.255l-7.572-.509c-1.926-.041-3.838-.34-5.68-.89-1.857-.571-3.386-1.869-4.221-3.582a9.48 9.48 0 0 1-.522-3.921c0-6.147 2.176-11.212 9.117-9.644 7.196 1.331 13.954 4.342 19.693 8.775zM487.891 421s32.715 19.163 42.541 43.389S498.252 547 498.252 547l-8.989-9.186s21.925-44.055 18.536-55.074-16.669-21.288-16.669-21.288L487.891 421zm-93.065 37.859s-45.488 20.381-63.973 10.379.545-60.238.545-60.238l12.379 4.202s-10.344 25.613 1.49 29.416 47.293-21.18 47.293-21.18l2.266 37.421z" class="B"/><path d="M480.466 545.976c-1.308.85-2.369 1.992-3.085 3.321-.429 1.128-.584 2.332-.453 3.522-.079 2.89 1.235 5.66 3.582 7.548 1.648.883 3.495 1.393 5.393 1.49a10.86 10.86 0 0 0 3.516 0c1.187-.211 2.178-.969 2.632-2.013a7.54 7.54 0 0 0 .194-2.013c.151-3.321 2.654-6.038 4.725-8.755.5-.525.823-1.176.927-1.872-.012-.77-.3-1.514-.819-2.113-1.403-1.892-4.876-5.374-7.659-5.073s-6.795 4.308-8.953 5.958zM351.585 401.435c.593-.824.997-1.756 1.187-2.737.151-1.015-.386-2.011-1.341-2.487-1.516-.564-3.317.919-4.811.293a3.29 3.29 0 0 1-1.231-1.129c-1.764-2.43-2.776-5.282-2.922-8.232.086-1.572-.062-3.148-.439-4.68-.445-1.577-2.028-2.614-3.735-2.445-1.407.313-2.198 1.671-3.076 2.758s-2.637 2.382-3.78 3.74c-1.95 2.791-3.067 6.034-3.229 9.382-.616 4.179-1.011 8.963 2.065 11.972 2.373 2.319 9.601 5.057 12.919 3.824 3.669-1.379 6.548-7.25 8.393-10.259z" class="C"/><defs><linearGradient id="A" x1="151.402" y1="315.166" x2="216.156" y2="186.6" xlink:href="#n"><stop stop-color="#010101" stop-opacity=".01"/><stop offset=".95" stop-color="#010101"/></linearGradient><linearGradient id="B" x1="206.563" y1="311.365" x2="299.417" y2="129.775" xlink:href="#n"><stop stop-color="#010101" stop-opacity=".01"/><stop offset=".95" stop-color="#010101"/></linearGradient><linearGradient id="C" x1="298.333" y1="377.321" x2="435.687" y2="67.177" xlink:href="#n"><stop stop-color="#010101" stop-opacity=".01"/><stop offset=".95" stop-color="#010101"/></linearGradient><linearGradient id="D" x1="454.379" y1="336.583" x2="659.309" y2="-110.821" xlink:href="#n"><stop stop-color="#010101" stop-opacity=".01"/><stop offset=".36" stop-color="#010101" stop-opacity=".36"/><stop offset=".95" stop-color="#010101"/></linearGradient><linearGradient id="E" x1="305.726" y1="231.564" x2="422.886" y2="-10.031" xlink:href="#n"><stop stop-color="#fff" stop-opacity=".01"/><stop offset=".07" stop-color="#fff" stop-opacity=".22"/><stop offset=".16" stop-color="#fff" stop-opacity=".45"/><stop offset=".25" stop-color="#fff" stop-opacity=".65"/><stop offset=".33" stop-color="#fff" stop-opacity=".8"/><stop offset=".4" stop-color="#fff" stop-opacity=".91"/><stop offset=".46" stop-color="#fff" stop-opacity=".98"/><stop offset=".51" stop-color="#fff"/></linearGradient><linearGradient id="F" x1="227.65" y1="178.444" x2="291.846" y2="42.555" xlink:href="#n"><stop stop-color="#fff" stop-opacity=".01"/><stop offset=".07" stop-color="#fff" stop-opacity=".22"/><stop offset=".16" stop-color="#fff" stop-opacity=".45"/><stop offset=".25" stop-color="#fff" stop-opacity=".65"/><stop offset=".33" stop-color="#fff" stop-opacity=".8"/><stop offset=".4" stop-color="#fff" stop-opacity=".91"/><stop offset=".46" stop-color="#fff" stop-opacity=".98"/><stop offset=".51" stop-color="#fff"/></linearGradient><linearGradient id="G" x1="532.972" y1="641.322" x2="543.393" y2="514.584" xlink:href="#n"><stop stop-color="#010101" stop-opacity=".01"/><stop offset=".95" stop-color="#010101"/></linearGradient><linearGradient id="H" x1="131.259" y1="178.517" x2="128.544" y2="628.071" xlink:href="#n"><stop stop-color="#fff" stop-opacity=".01"/><stop offset=".07" stop-color="#fff" stop-opacity=".22"/><stop offset=".16" stop-color="#fff" stop-opacity=".45"/><stop offset=".25" stop-color="#fff" stop-opacity=".65"/><stop offset=".33" stop-color="#fff" stop-opacity=".8"/><stop offset=".4" stop-color="#fff" stop-opacity=".91"/><stop offset=".46" stop-color="#fff" stop-opacity=".98"/><stop offset=".51" stop-color="#fff"/></linearGradient><linearGradient id="I" x1="-122.395" y1="616.073" x2="-122.295" y2="758.306" xlink:href="#n"><stop stop-color="#010101" stop-opacity=".01"/><stop offset=".95" stop-color="#010101"/></linearGradient><linearGradient id="J" x1="1030.02" y1="361.966" x2="1064.2" y2="-45.145" xlink:href="#n"><stop stop-color="#fff" stop-opacity=".01"/><stop offset=".07" stop-color="#fff" stop-opacity=".22"/><stop offset=".16" stop-color="#fff" stop-opacity=".45"/><stop offset=".25" stop-color="#fff" stop-opacity=".65"/><stop offset=".33" stop-color="#fff" stop-opacity=".8"/><stop offset=".4" stop-color="#fff" stop-opacity=".91"/><stop offset=".46" stop-color="#fff" stop-opacity=".98"/><stop offset=".51" stop-color="#fff"/></linearGradient><linearGradient id="K" x1="203.138" y1="251.87" x2="341.145" y2="620.142" xlink:href="#n"><stop stop-color="#fff" stop-opacity=".01"/><stop offset=".07" stop-color="#fff" stop-opacity=".22"/><stop offset=".16" stop-color="#fff" stop-opacity=".45"/><stop offset=".25" stop-color="#fff" stop-opacity=".65"/><stop offset=".33" stop-color="#fff" stop-opacity=".8"/><stop offset=".4" stop-color="#fff" stop-opacity=".91"/><stop offset=".46" stop-color="#fff" stop-opacity=".98"/><stop offset=".51" stop-color="#fff"/></linearGradient><linearGradient id="L" x1="306.668" y1="274.99" x2="303.343" y2="557.698" xlink:href="#n"><stop stop-color="#fff" stop-opacity=".01"/><stop offset=".07" stop-color="#fff" stop-opacity=".22"/><stop offset=".16" stop-color="#fff" stop-opacity=".45"/><stop offset=".25" stop-color="#fff" stop-opacity=".65"/><stop offset=".33" stop-color="#fff" stop-opacity=".8"/><stop offset=".4" stop-color="#fff" stop-opacity=".91"/><stop offset=".46" stop-color="#fff" stop-opacity=".98"/><stop offset=".51" stop-color="#fff"/></linearGradient><linearGradient id="M" x1="622.503" y1="466.704" x2="641.69" y2="-111.215" xlink:href="#n"><stop stop-color="#010101" stop-opacity=".01"/><stop offset=".95" stop-color="#010101"/></linearGradient><linearGradient id="N" x1="621.651" y1="467.045" x2="640.838" y2="-110.875" xlink:href="#n"><stop stop-color="#010101" stop-opacity=".01"/><stop offset=".95" stop-color="#010101"/></linearGradient><linearGradient id="O" x1="527.472" y1="464.354" x2="546.688" y2="-113.565" xlink:href="#n"><stop stop-color="#010101" stop-opacity=".01"/><stop offset=".95" stop-color="#010101"/></linearGradient><linearGradient id="P" x1="526.62" y1="464.694" x2="545.836" y2="-113.224" xlink:href="#n"><stop stop-color="#010101" stop-opacity=".01"/><stop offset=".95" stop-color="#010101"/></linearGradient><linearGradient id="Q" x1="620.712" y1="468.545" x2="639.928" y2="-109.373" xlink:href="#n"><stop stop-color="#010101" stop-opacity=".01"/><stop offset=".95" stop-color="#010101"/></linearGradient><linearGradient id="R" x1="526.682" y1="466.236" x2="545.87" y2="-111.683" xlink:href="#n"><stop stop-color="#010101" stop-opacity=".01"/><stop offset=".95" stop-color="#010101"/></linearGradient><linearGradient id="S" x1="574.672" y1="467.396" x2="593.888" y2="-110.501" xlink:href="#n"><stop stop-color="#010101" stop-opacity=".01"/><stop offset=".95" stop-color="#010101"/></linearGradient><linearGradient id="T" x1="576.488" y1="464.843" x2="595.704" y2="-113.075" xlink:href="#n"><stop stop-color="#010101" stop-opacity=".01"/><stop offset=".95" stop-color="#010101"/></linearGradient><linearGradient id="U" x1="231.41" y1="479.399" x2="463.643" y2="696.094" xlink:href="#n"><stop stop-color="#fff" stop-opacity=".01"/><stop offset=".07" stop-color="#fff" stop-opacity=".22"/><stop offset=".16" stop-color="#fff" stop-opacity=".45"/><stop offset=".25" stop-color="#fff" stop-opacity=".65"/><stop offset=".33" stop-color="#fff" stop-opacity=".8"/><stop offset=".4" stop-color="#fff" stop-opacity=".91"/><stop offset=".46" stop-color="#fff" stop-opacity=".98"/><stop offset=".51" stop-color="#fff"/></linearGradient><linearGradient id="V" x1="580.277" y1="259.864" x2="578.492" y2="395.026" xlink:href="#n"><stop stop-color="#fff" stop-opacity=".01"/><stop offset=".07" stop-color="#fff" stop-opacity=".22"/><stop offset=".16" stop-color="#fff" stop-opacity=".45"/><stop offset=".25" stop-color="#fff" stop-opacity=".65"/><stop offset=".33" stop-color="#fff" stop-opacity=".8"/><stop offset=".4" stop-color="#fff" stop-opacity=".91"/><stop offset=".46" stop-color="#fff" stop-opacity=".98"/><stop offset=".51" stop-color="#fff"/></linearGradient><linearGradient id="W" x1="580.277" y1="369.864" x2="578.492" y2="505.026" xlink:href="#n"><stop stop-color="#fff" stop-opacity=".01"/><stop offset=".07" stop-color="#fff" stop-opacity=".22"/><stop offset=".16" stop-color="#fff" stop-opacity=".45"/><stop offset=".25" stop-color="#fff" stop-opacity=".65"/><stop offset=".33" stop-color="#fff" stop-opacity=".8"/><stop offset=".4" stop-color="#fff" stop-opacity=".91"/><stop offset=".46" stop-color="#fff" stop-opacity=".98"/><stop offset=".51" stop-color="#fff"/></linearGradient><linearGradient id="X" x1="216.437" y1="295.281" x2="216.42" y2="313.481" xlink:href="#n"><stop stop-color="#fff" stop-opacity=".01"/><stop offset=".07" stop-color="#fff" stop-opacity=".22"/><stop offset=".16" stop-color="#fff" stop-opacity=".45"/><stop offset=".25" stop-color="#fff" stop-opacity=".65"/><stop offset=".33" stop-color="#fff" stop-opacity=".8"/><stop offset=".4" stop-color="#fff" stop-opacity=".91"/><stop offset=".46" stop-color="#fff" stop-opacity=".98"/><stop offset=".51" stop-color="#fff"/></linearGradient><linearGradient id="Y" x1="135.737" y1="348.052" x2="249.168" y2="258.635" xlink:href="#n"><stop stop-color="#010101" stop-opacity=".01"/><stop offset=".95" stop-color="#010101"/></linearGradient><linearGradient id="Z" x1="185.575" y1="367.988" x2="346.852" y2="242.867" xlink:href="#n"><stop stop-color="#010101" stop-opacity=".01"/><stop offset=".95" stop-color="#010101"/></linearGradient><linearGradient id="a" x1="290.519" y1="426.751" x2="546.684" y2="204.028" xlink:href="#n"><stop stop-color="#010101" stop-opacity=".01"/><stop offset=".95" stop-color="#010101"/></linearGradient><linearGradient id="b" x1="399.279" y1="495.865" x2="774.962" y2="177.45" xlink:href="#n"><stop stop-color="#010101" stop-opacity=".01"/><stop offset=".36" stop-color="#010101" stop-opacity=".36"/><stop offset=".95" stop-color="#010101"/></linearGradient><linearGradient id="c" x1="247.537" y1="258.751" x2="430.477" y2="127.322" xlink:href="#n"><stop stop-color="#fff" stop-opacity=".01"/><stop offset=".07" stop-color="#fff" stop-opacity=".22"/><stop offset=".16" stop-color="#fff" stop-opacity=".45"/><stop offset=".25" stop-color="#fff" stop-opacity=".65"/><stop offset=".33" stop-color="#fff" stop-opacity=".8"/><stop offset=".4" stop-color="#fff" stop-opacity=".91"/><stop offset=".46" stop-color="#fff" stop-opacity=".98"/><stop offset=".51" stop-color="#fff"/></linearGradient><linearGradient id="d" x1="189.301" y1="313.716" x2="305.159" y2="217.857" xlink:href="#n"><stop stop-color="#fff" stop-opacity=".01"/><stop offset=".07" stop-color="#fff" stop-opacity=".22"/><stop offset=".16" stop-color="#fff" stop-opacity=".45"/><stop offset=".25" stop-color="#fff" stop-opacity=".65"/><stop offset=".33" stop-color="#fff" stop-opacity=".8"/><stop offset=".4" stop-color="#fff" stop-opacity=".91"/><stop offset=".46" stop-color="#fff" stop-opacity=".98"/><stop offset=".51" stop-color="#fff"/></linearGradient><linearGradient id="e" x1="126.738" y1="422.745" x2="164.923" y2="422.767" xlink:href="#n"><stop stop-color="#fff" stop-opacity=".01"/><stop offset=".07" stop-color="#fff" stop-opacity=".22"/><stop offset=".16" stop-color="#fff" stop-opacity=".45"/><stop offset=".25" stop-color="#fff" stop-opacity=".65"/><stop offset=".33" stop-color="#fff" stop-opacity=".8"/><stop offset=".4" stop-color="#fff" stop-opacity=".91"/><stop offset=".46" stop-color="#fff" stop-opacity=".98"/><stop offset=".51" stop-color="#fff"/></linearGradient><linearGradient id="f" x1="53.446" y1="325.2" x2="65.097" y2="363.932" xlink:href="#n"><stop stop-color="#010101" stop-opacity=".01"/><stop offset=".95" stop-color="#010101"/></linearGradient><linearGradient id="g" x1="78.244" y1="473.933" x2="179.146" y2="475.976" xlink:href="#n"><stop stop-color="#010101" stop-opacity=".01"/><stop offset=".95" stop-color="#010101"/></linearGradient><linearGradient id="h" x1="481.015" y1="631.512" x2="384.922" y2="466.732" xlink:href="#n"><stop stop-color="#010101" stop-opacity=".01"/><stop offset=".95" stop-color="#010101"/></linearGradient><linearGradient id="i" x1="482.037" y1="169.892" x2="309.151" y2="174.761" xlink:href="#n"><stop stop-color="#010101" stop-opacity=".01"/><stop offset=".95" stop-color="#010101"/></linearGradient><path id="j" d="M27.214 248.055l14.113-28.835 46.464 22.683-14.114 28.835-46.464-22.683z"/><path id="k" d="M124.886 174.847l25.032-20.129 32.435 40.23-25.032 20.129-32.435-40.23z"/><path id="l" d="M145.653 239.15V362h-21.014V239.15c0-4.54 2.818-8.58 7.018-10.061v-12.264c0-2.113 1.676-3.825 3.743-3.825s3.744 1.712 3.744 3.825v12.472c3.919 1.638 6.488 5.526 6.509 9.853z"/><path id="m" d="M479.687 654.507c-.486 12.595-10.248 58.881-10.565 71.497 0 4.198 1.12 10.643-.233 14.694-2.789 8.586-12.678 7.41-13.967 2.351l-.486-2.519c-4.586-24.518 2.789-52.332 0-84.344-1.67-19.543-9.446-57.223-14.538-57.475-2.684 0-63.941 129.14-69.266 137.096-2.621 4.01-9.995 3.38-13.566 6.613s29.752-97.905 43.719-151.35a169.07 169.07 0 0 0 6.339-33.818c.381-6.612-1.754-8.837 4.353-10.789 4.226-1.344 10.08-.966 14.601-1.281 4.924-.378 50.714-.462 50.714 2.771-.444 17.549 4.078 77.459 2.895 106.554z"/><linearGradient id="n" gradientUnits="userSpaceOnUse"/></defs></svg>