<svg xmlns="http://www.w3.org/2000/svg" width="36" height="36" fill="none" xmlns:v="https://vecta.io/nano"><path fill-rule="evenodd" d="M35.623 22.24c-.229-.091-.49-.034-.66.144L32.4 25.077V9.079h.003l2.445-2.64a.6.6 0 0 0-.033-.848h0l-.88-.819 1.223-1.32a.6.6 0 0 0-.034-.848L32.483.16a.6.6 0 0 0-.848.033L27.37 4.798H6.6c-.002-1.656-1.344-2.998-3-3H3c-1.656.002-2.998 1.344-3 3v25.798a.6.6 0 0 0 .6.6h9.083l-1.26 1.513a.6.6 0 0 0 .077.845l2.767 2.303a.6.6 0 0 0 .845-.077h0l3.071-3.689a1.78 1.78 0 0 0 .394-.894h10.994l-3.606 3.786a.6.6 0 0 0 .435 1.013h12a.6.6 0 0 0 .6-.6V22.797a.6.6 0 0 0-.377-.558zM33.56 6.058L32.4 7.313V6.43l.72-.78.44.408zM31.2 5.96v-.009h.007l1.031-1.113-1.762-1.63-6.113 6.606 1.762 1.63L31.2 5.96zm-6.227 6.051l-1.38.403.295-1.408 1.085 1.005zm8.895-8.935l-1.761-1.629-.816.881 1.762 1.631.815-.882zM3 2.999h.6a1.8 1.8 0 0 1 1.8 1.8v22.814a2.97 2.97 0 0 0-1.8-.616H3a2.97 2.97 0 0 0-1.8.616V4.798a1.8 1.8 0 0 1 1.8-1.8zm.6 25.198H3a1.8 1.8 0 0 0-1.8 1.8h4.2a1.8 1.8 0 0 0-1.8-1.8zm10.661 3.127l-.384.461-1.844-1.535.383-.461a.6.6 0 0 1 .845-.077l.923.766a.6.6 0 0 1 .078.845h0v.002zm-4.532 1.693l1.845 1.535 1.535-1.845-1.844-1.536-1.536 1.845zm5.595-3.02a1.78 1.78 0 0 0-.373-.44l-.922-.767a1.8 1.8 0 0 0-2.535.231l-.814.976H6.6V5.998H26.26l-3.184 3.441a.58.58 0 0 0-.107.175l-.019.052-.008.021-.012.034-.716 3.425a.6.6 0 0 0 .755.698l3.36-.979c.008-.003.016-.006.024-.01l.02-.009c.015-.005.031-.013.047-.021.067-.03.128-.074.18-.127l4.6-4.971v18.61l-3.486 3.66h-12.39zm9.475 4.799h10V24.297l-10 10.499zm4.001-1.2a.6.6 0 0 1-.424-1.024l4.2-4.199a.6.6 0 0 1 1.024.424v4.2a.6.6 0 0 1-.6.6h-4.2zm3.6-1.2v-2.151l-2.152 2.151H32.4zm-10.2-9.599h4.2a.6.6 0 0 1 .6.6.6.6 0 0 1-.6.6H9.6a.6.6 0 0 1-.6-.6.6.6 0 0 1 .6-.6h4.2v-6.6a.61.61 0 0 1 .175-.425l3.6-3.6a.6.6 0 0 1 .848 0l3.6 3.6c.112.113.176.266.177.425v6.6zm-2.048-7.2L18 13.446l-2.152 2.152h4.303zM15 16.797h6v6h-6v-6zm2.4-7.199h1.2v1.2h-1.2v-1.2zm1.2 15.599h-1.2v1.2h1.2v-1.2z" fill="#000"/></svg>