<svg xmlns="http://www.w3.org/2000/svg" xmlns:xlink="http://www.w3.org/1999/xlink" width="540" height="389" fill="none" xmlns:v="https://vecta.io/nano"><style><![CDATA[.B{opacity:.1}.C{fill:#000}.D{fill:#3f3d56}.E{fill:#111b47}.F{fill:#2f2e41}.G{fill:#f2f2f2}]]></style><path d="M540 233.484c0 67.655-40.294 91.277-90 91.277s-90-23.622-90-91.277 90-153.723 90-153.723 90 86.068 90 153.723z" class="G"/><path d="M446.955 314.639l.916-56.676L486 187.848l-37.985 61.225.412-25.484 26.278-50.728-26.17 43.984h0l.741-45.834 28.14-40.386-28.024 33.179.463-84.042-2.908 111.258.239-4.59-28.61-44.018 28.151 52.829-2.666 51.188-.079-1.359L411 198.747l32.882 51.122-.333 6.401-.06.097.027.525-6.763 129.869h9.036l1.084-67.079 32.802-50.998-32.72 45.955z" class="D"/><path d="M49 346.172c0 18.226-10.969 24.589-24.5 24.589S0 364.398 0 346.172s24.5-41.411 24.5-41.411S49 327.947 49 346.172z" class="G"/><path d="M23.588 367.263l.244-15.323L34 332.983l-10.129 16.553.11-6.89 7.008-13.715-6.978 11.892.197-12.392 7.504-10.918-7.473 8.97.123-22.722-.776 30.079.063-1.24-7.629-11.901 7.507 14.283-.711 13.839-.021-.367L14 335.93l8.768 13.821-.089 1.731-.016.026.007.142-1.804 35.111h2.41l.289-18.135 8.748-13.788-8.725 12.425z" class="D"/><path d="M3 387.261H492" stroke="#3f3d56" stroke-width="2"/><path d="M493 370.996c0 12.427-7.387 16.765-16.5 16.765-.211 0-.422-.002-.632-.007a27.03 27.03 0 0 1-1.254-.057c-8.224-.582-14.614-5.144-14.614-16.701 0-11.96 15.284-27.051 16.432-28.168l.002-.002.066-.065S493 358.57 493 370.996z" class="E"/><g class="D"><path d="M475.712 385.867l6.107-8.434-6.123 9.36-.016.968-1.269-.057.659-12.434-.005-.097.011-.018.062-1.174-6.138-9.383 6.157 8.502.014.249.498-9.395-5.255-9.695 5.319 8.046.518-19.477.002-.067v.065l-.087 15.359 5.232-6.089-5.253 7.412-.138 8.412 4.884-8.073-4.905 9.311-.077 4.676L483 362.598l-7.117 12.868-.171 10.401z"/><rect x="313" y="88.762" width="6" height="47" rx="2.292"/><rect x="124" y="51.762" width="3" height="15" rx="1.5"/><rect x="124" y="79.762" width="4" height="27" rx="1.695"/><rect x="124" y="116.761" width="3" height="27" rx="1.5"/><rect x="126" y=".761" width="190" height="386" rx="35.694"/></g><g fill="#e6e8ec"><rect x="202" y="12.762" width="27" height="5" rx="2.5"/><path d="M236 17.762a3 3 0 1 0 0-6 3 3 0 1 0 0 6z"/></g><path d="M305 25.851v335.826c-.002 8.333-6.777 15.086-15.133 15.084H153.133c-8.356.002-15.131-6.751-15.133-15.084V25.851a15.07 15.07 0 0 1 4.432-10.67c2.838-2.83 6.687-4.42 10.701-4.419h20.461v2.62c.002 6.861 5.58 12.423 12.461 12.425h69.537c6.882 0 12.461-5.563 12.461-12.425v-2.62h21.814c4.014 0 7.863 1.589 10.701 4.419A15.07 15.07 0 0 1 305 25.851z" fill="#fff"/><path d="M138 88.761h167v192H138z" class="G"/><path d="M150 306.761l-.87-.779c-3.09-2.817-5.129-4.646-5.129-6.923-.016-.876.326-1.72.948-2.342s1.47-.965 2.351-.955c1.043.005 2.03.466 2.7 1.259.67-.793 1.657-1.254 2.7-1.259.881-.01 1.73.334 2.351.955s.964 1.466.948 2.342c0 2.277-2.039 4.106-5.129 6.923l-.87.779z" fill="#ff6584"/><path d="M181 304.299l1.734.462c.629-1.701 2.116-3.005 3.975-3.484s3.852-.072 5.327 1.088l-2.649 2.396H196v-6l-2.665 2.385c-1.935-1.584-4.594-2.156-7.077-1.521s-4.458 2.39-5.258 4.674h0z" class="G"/><path d="M148.5 74.762a7.5 7.5 0 1 0 0-15 7.5 7.5 0 1 0 0 15zm13.5-12h72v9h-72z" class="E"/><path d="M143 319.761h72v9h-72zm1 19h151v9H144zm30-32l-1.844-3.286c.912-2.23.073-4.803-1.967-6.035s-4.659-.747-6.143 1.138-1.378 4.593.246 6.353 4.272 2.035 6.211.643l3.497 1.187z" class="G"/><path d="M206.555 133.212h0c-5.705 1.179-10.713 4.6-13.921 9.51s-4.356 10.905-3.188 16.669l4.531 22.37 5.074-1.048.358-2.371 1.063 2.077 30.846-6.377.358-2.371 1.063 2.077 4.261-.881-4.532-22.371a22.19 22.19 0 0 0-9.413-14.064c-4.859-3.241-10.795-4.4-16.5-3.22z" class="F"/><path d="M245.647 201.761L272 217.948l-3.294 7.813L244 214.041l1.647-12.28z" fill="#9f616a"/><g class="E"><path d="M211.906 220.4s-53.514 0-62.341 13.761-1.655 33.026 25.93 37.43 111.442 6.605 118.062-9.908 1.656-25.871 1.656-25.871-28.689-19.816-83.307-15.412z"/><path d="M258.606 233.747L288 244.761s12.202-8.811 6.101-18.724-33.832-67.19-33.832-67.19-7.764-11.015 2.219-17.073 13.865 3.855 13.865 3.855-.554 2.203 3.328.551 11.093 3.855 7.21 12.667-6.655 11.015 1.664 10.464c3.004-.199 5.647-2.337 7.797-4.988 4.122-5.08 2.282-9.172 1.97-15.689-.534-11.163-1.408-18.441-4.221-22.831-3.882-6.058-9.428-11.015-23.848-8.261s-35.496 16.522-30.504 36.348 16.084 41.856 16.084 41.856 7.764 30.841 2.773 38.001z"/></g><path d="M259 233.538c-4.762 1.314-10.743 1.954-17.18 2.153-11.233.348-23.877-.646-33.975-1.772-10.908-1.22-18.845-2.589-18.845-2.589 3.687-3.445 9.354-4.808 16.012-5.305 8.268-.619 18.068.088 27.531-.216 3.489-.122 6.981.141 10.412.784 10.44 1.993 16.045 6.945 16.045 6.945z" class="B C"/><g fill="#9f616a"><path d="M211.5 173.761c8.56 0 15.5-6.939 15.5-15.5s-6.94-15.5-15.5-15.5-15.5 6.94-15.5 15.5 6.94 15.5 15.5 15.5z"/><path d="M209.253 170.873s2.722 10.555 0 11.111-9.253 3.333-9.253 3.333l8.165 3.333 15.24 14.445 13.063 6.666 6.532-2.222v-12.222l-9.797-15.556s-6.532 2.223-8.165-5-4.899-10-4.899-10l-10.886 6.112z"/><path d="M205.355 185.761h-6.616s-11.58 3.837-18.196 12.607-17.093 17.539-17.093 17.539-7.168 9.866-3.309 23.568 9.374 23.568 14.336 20.828-7.168-22.472-7.168-22.472l3.309-12.058s17.093-19.732 24.261-19.184 7.719 6.577 7.719 6.577l15.439 4.385L223 207.137l-2.757-10.962-14.888-10.414z"/></g><path d="M244.775 220.999c-1.036 1.772-1.796 3.691-2.253 5.691a44.17 44.17 0 0 0-1.129 9.002c-11.173.344-23.748-.639-33.792-1.754l-2.817-7.81c-2.572-7.396-4.962-14.944-4.962-16.053 0-2.185 11.513 1.639 14.254 1.093s3.837-9.286 0-13.655S199 185.77 199 185.77l3.837-1.093s8.498 6.281 26.04 16.659 10.416-6.008 10.416-6.008l-10.142-15.567h4.386s8.497 14.475 12.883 21.029 2.741 13.109-1.645 20.209z" class="D"/><path d="M194.366 143.663l27.916-5.713 3.506 17.13-27.916 5.713-3.506-17.13z" class="F"/><path d="M282.5 140.761a8.5 8.5 0 0 0 8.5-8.5c0-4.694-3.806-8.5-8.5-8.5s-8.5 3.806-8.5 8.5a8.5 8.5 0 0 0 8.5 8.5z" class="D"/><path d="M282.5 136.761a4.5 4.5 0 1 0 0-9 4.5 4.5 0 1 0 0 9z" fill="#fff"/><use xlink:href="#B" class="E"/><use xlink:href="#B" class="B C"/><use xlink:href="#C" class="D"/><use xlink:href="#C" class="B C"/><use xlink:href="#C" x="9" class="D"/><path d="M82.999 321.716c.07 11.047-3.111 21.844-6.843 32.228a294.71 294.71 0 0 1-4.703 12.224c-.982 2.393-2.088 5.049-1.036 7.412-3.027-1.163-6.126-1.851-9.322-1.313 1.216-2.504 1.102-5.418 1.156-8.205.106-3.784.509-7.554 1.206-11.274a63.23 63.23 0 0 1 5.458-16.298 12.41 12.41 0 0 0 1.058-3.436c.331-2.649.179-5.337-.45-7.931a47.59 47.59 0 0 0-6.528-16.152l-.032.33a48.59 48.59 0 0 1-.821 4.889c-.715 3.422-1.548 6.845-1.423 10.285.134 3.648-.09 7.301-.668 10.904-.184 1.416-.549 2.802-1.086 4.123-.349.79-.805 1.534-1.08 2.353a10.85 10.85 0 0 0-.423 2.913c-.407 8.318-.006 18.962 1.678 27.117-2.838-.132-5.658.516-8.16 1.876-2.035-5.798-3.332-14.035-4.302-20.142a60.2 60.2 0 0 1 .658-21.704c.477-2.38.656-4.811.532-7.236-.217-4.83-1.393-9.554-2.561-14.243l-1.782-7.14-2.539-10.175c-.562-2.256-1.13-4.561-.953-6.882.124-1.272.389-2.526.789-3.739 1.264-4.128 3.155-8.033 5.604-11.576 9.753.554 19.625-.369 29.365-1.125.474-.094.965-.01 1.381.237a1.98 1.98 0 0 1 .554 1.267l3.659 20.936a53.25 53.25 0 0 1 1.042 8.847c.018 2.964-.458 5.917-.347 8.878.148 3.989.895 7.761.919 11.752z" class="F"/><path d="M63 309.942a46.43 46.43 0 0 1-.837 4.819c-2.162-3.652-4.492-7.213-6.482-10.957-.513-.965-1.002-1.942-1.493-2.917l-1.466-2.925c-.274-.548-.55-1.097-.798-1.659-.404-.808-.714-1.659-.925-2.535.724-.13 2.508 1.776 3.043 2.274 1.099 1.059 2.137 2.176 3.109 3.348 1.176 1.3 2.255 2.68 3.23 4.13A19.85 19.85 0 0 1 63 309.942z" class="B C"/><g fill="#efb7b9"><path d="M72 208.377s-5.551 8.961-4.523 10.837S50 217.546 50 217.546s10.075-8.961 9.047-12.712S72 208.377 72 208.377z"/><path d="M66.5 210.761c6.904 0 12.5-5.596 12.5-12.5s-5.596-12.5-12.5-12.5-12.5 5.597-12.5 12.5 5.596 12.5 12.5 12.5z"/></g><path d="M71.863 216.975c-1.335-1.845-3.147-3.298-5.244-4.204a19.01 19.01 0 0 0-3.725-.913l-4.975-.869c-1.219-.213-2.524-.417-3.655.083-.578.29-1.105.673-1.558 1.132-1.729 1.591-3.405 3.341-5.573 4.259l-1.807.689c-2.426 1.038-4.239 3.204-5.27 5.62-1.081 2.535-1.112 5.282-1.027 8.033-.003.95.091 1.897.281 2.828a18.94 18.94 0 0 0 .944 2.592c.687 1.795 1.262 3.63 1.723 5.495 1.289 4.901 2.36 9.853 3.214 14.854.075.719.287 1.417.627 2.056a7.35 7.35 0 0 0 1.72 1.642c.522.429 1.004.904 1.441 1.419.213.219.37.487.455.78.161.74-.496 1.373-1.03 1.913a9.22 9.22 0 0 0-2.329 4.029c-.261.311-.393.709-.37 1.113a1.92 1.92 0 0 1 .116.879c-.102.271-.262.518-.469.724-.481.622-.67 1.42-.517 2.19a35.23 35.23 0 0 0 12.21 2.84c1.031.048 2.065.048 3.089.173.73.09 1.452.243 2.183.327 1.063.099 2.132.126 3.199.081 5.55-.109 11.263-.252 16.359-2.438.48-2.597-.554-5.243-1.203-7.804-1.032-4.072-1.292-8.296-2.059-12.425-.525-2.827-1.289-5.608-1.726-8.449s-.54-5.787.246-8.553c.697-2.451.907-4.947 1.629-7.39s1.228-5.094.413-7.509c-1.011-2.994-4.138-5.362-7.313-5.197z" class="E"/><path d="M77.838 192.258c.609-2.184-.589-4.458-2.022-6.232-1.54-1.907-3.53-3.627-5.959-4.105-1.974-.39-4.02.08-6.028-.076-1.779-.139-3.484-.765-5.255-.99a16.92 16.92 0 0 0-4.803.179 18.08 18.08 0 0 0-4.378 1.201c-5.332 2.32-8.457 8.049-9.182 13.732s.546 11.408 1.81 16.999l1.142 5.054c1.189 5.26 2.382 10.548 2.7 15.927s-.275 10.902-2.529 15.814c7.286-3.842 12.931-10.119 15.915-17.693.81-2.08 1.41-4.239 2.308-6.284.772-1.76 1.761-3.427 2.445-5.221.772-2.027 1.143-4.181 1.092-6.344-.039-1.627-.316-3.245-.268-4.871s.469-3.323 1.614-4.498c1.017-1.046 2.463-1.548 3.774-2.206 2.062-1.039 3.863-2.515 5.274-4.321.826-1.056.87-1.507 1.08-2.726.204-1.185.948-2.189 1.268-3.339z" class="F"/><path d="M77.893 284.677c.127 1.292-.107 2.616.175 3.882.212.952.705 1.817.995 2.749a13.04 13.04 0 0 1 .441 3.307c.042.937-.03 2.076-.858 2.515-.364.193-.8.196-1.178.358s-.703.621-.486.971c.182.294.596.298.935.368s.712.421.515.705a.6.6 0 0 1-.302.193c-.347.104-.675.262-.972.468a.98.98 0 0 0-.4.946c.041.175.161.321.324.396a.58.58 0 0 0 .511-.011c-.152.325-.235.677-.244 1.036 1.325.57 2.816-.176 4.063-.901.541-.299 1.063-.632 1.563-.995a7.79 7.79 0 0 0 3.013-6.629c-.058-.638-.155-1.271-.292-1.897-.193-1.087-.449-2.163-.764-3.222-.356-1.116-.846-2.185-1.266-3.279-.895-2.331-1.471-4.772-2.278-7.135-.023-.228-.141-.437-.324-.575s-.416-.193-.641-.153c-.908-.047-1.819.037-2.703.249-.534.157-1.411.5-1.651 1.06-.216.505.146.957.376 1.39.752 1.294 1.245 2.722 1.452 4.204z" fill="#efb7b9"/><use xlink:href="#D" class="B C"/><use xlink:href="#D" y="-1" class="E"/><g class="B C"><path d="M75.697 185.342c-1.535-1.921-3.519-3.653-5.94-4.135-1.968-.392-4.008.081-6.009-.077-1.774-.139-3.473-.77-5.238-.997a16.71 16.71 0 0 0-4.788.181 17.9 17.9 0 0 0-4.364 1.209 12.73 12.73 0 0 0-2.151 1.211 18.85 18.85 0 0 1 3.854-.999c1.579-.289 3.191-.35 4.788-.18 1.765.227 3.464.858 5.238.997 2.001.158 4.041-.315 6.009.076 2.422.483 4.405 2.215 5.94 4.135 1.429 1.787 2.623 4.077 2.016 6.277-.32 1.158-1.061 2.17-1.264 3.364-.209 1.227-.253 1.681-1.076 2.745-1.059 1.368-2.34 2.552-3.791 3.503l1.195-.572c2.055-1.047 3.851-2.534 5.257-4.353.823-1.064.867-1.518 1.076-2.745.204-1.194.945-2.205 1.264-3.364.607-2.2-.587-4.489-2.016-6.276zm-9.345 18.959a5.34 5.34 0 0 1 .698-.602c-1.193.574-2.448 1.078-3.359 2.024-1.141 1.184-1.561 2.893-1.609 4.53s.228 3.268.267 4.906c.05 2.179-.319 4.348-1.089 6.39-.682 1.807-1.668 3.486-2.438 5.259-.895 2.06-1.493 4.234-2.3 6.329-2.58 6.613-7.162 12.27-13.116 16.193l-.088.206c7.263-3.87 12.891-10.192 15.865-17.821.808-2.095 1.406-4.269 2.3-6.329.77-1.772 1.755-3.451 2.438-5.259a17 17 0 0 0 1.089-6.39c-.039-1.638-.315-3.268-.267-4.905s.468-3.347 1.609-4.531z"/></g><g class="F"><path d="M338.525 385.583c-.6.682-1.628.819-2.558.909-1.202.164-2.421.186-3.628.066-1.434-.201-2.294.566-3.604-.024-.793-.357-2.013.357-2.806 0-1.086-.49-4.838-.591-5.5-1.546s-.594-2.464.452-3.028c.297-.133.603-.245.916-.337 1.751-.656 5.299-5.603 7.162-5.856.924-.041 1.842.163 2.65.587 1.837.768 5.08 1.374 5.882 3.321.624 1.518 2.333 4.425 1.034 5.908zm12.945.578c.593.722 1.609.868 2.529.963a14.29 14.29 0 0 0 3.585.069c1.418-.213 3.146 1.014 4.441.389.784-.378 1.99-.181 2.773-.559 1.074-.518 6.124.637 6.778-.374s.587-2.609-.447-3.206c-.293-.14-.596-.26-.906-.357-1.731-.695-7.455-7.051-9.297-7.319a4.88 4.88 0 0 0-2.62.622c-1.815.813-5.022 1.454-5.814 3.517-.617 1.606-2.306 4.685-1.022 6.255z"/><path d="M357.088 273.604c.565 1.078 1.059 2.19 1.478 3.332 5.015 13.161 5.435 27.543 5.643 41.612a52.55 52.55 0 0 0 .394 6.844c.21 1.44.542 2.895.328 4.334-.185 1.245-.776 2.472-.54 3.708.105.555.373 1.069.479 1.623a5.75 5.75 0 0 1-.05 1.828l-.673 4.962c-.383 2.827-1.267 5.55-1.219 8.402.033 1.946.066 3.895.285 5.828.221 1.964.634 3.912.655 5.888.016 1.479-.188 2.951-.32 4.424a45.42 45.42 0 0 0-.126 6.26c.078 1.608.264 3.277 1.124 4.643-.963 1.37-1.917 2.597-3.459 3.268-3.134 1.363-6.729.901-10.115.413.187-.62.478-1.322.207-1.911-.159-.285-.355-.549-.581-.785a9.17 9.17 0 0 1-1.507-3.476c-.41-1.481-.82-3.076.021-4.498.29-.507.418-1.088.367-1.669-.701-9.329-2.793-18.982-.866-28.139.206-.977.451-1.949.566-2.941a35.65 35.65 0 0 0 .051-4.287l-.04-1.989c-.101-2.122-.014-4.297-.443-6.397-.307-1.503-.881-3.014-.174-4.546a2.48 2.48 0 0 0-.105-2.207c-1.487-2.585-2.683-5.324-3.567-8.169a14.36 14.36 0 0 0-.751-2.325 16.67 16.67 0 0 0-1.483-2.264c-1.678-2.413-2.682-5.214-3.667-7.978.105-.254.025-.607-.249-.57-.271.068-.504.24-.647.478-1.349 1.8-1.462 4.2-1.523 6.442a47.05 47.05 0 0 0 .107 6.249c.116 1.089.307 2.169.406 3.26.129 2.034.096 4.076-.098 6.106l-.689 9.987c-.093.826-.043 1.661.148 2.47a13.75 13.75 0 0 1 .639 4.327 77.31 77.31 0 0 0 1.567 17.979l1.011 4.896c.673 3.869.765 7.812.856 11.738.055 2.413.095 4.914-.864 7.133-.374.684-.649 1.417-.816 2.178a4.7 4.7 0 0 1-.157 1.162c-.281.718-1.125 1.024-1.885 1.188-1.426.308-2.889.411-4.345.307-.342-.005-.679-.08-.991-.218-.543-.279-.831-.871-1.244-1.318-.891-.965-2.372-1.261-3.183-2.292-1.015-1.29-.589-3.159.015-4.682s1.352-3.176.832-4.728c-.613-1.83-2.785-2.816-3.368-4.655 1.664-7.419-2.423-15.093-2.073-22.685.082-1.769.391-3.524.397-5.295.016-4.56-1.975-8.997-1.648-13.546.833-11.559-3.136-23.099-4.818-34.567-.318-1.712-.437-3.454-.354-5.193.249-2.87 1.593-5.542 3.208-7.936 1.158-1.716 2.55-3.395 4.468-4.197 1.579-.661 3.348-.659 5.062-.645l12.827.142a42.54 42.54 0 0 1 8.672.769c2.313.525 4.476 1.595 6.825 1.928z"/></g><g fill="#a1616a"><path d="M288.641 220.886c-.429-2.07.382-4.285-.252-6.304-.229-.728-.791-1.484-1.564-1.463-.75.02-1.258.745-1.924 1.088-1.073.553-2.376.051-3.448-.504s-2.267-1.181-3.43-.849c-.137.718.355 1.403.89 1.908.593.442 1.083 1.002 1.439 1.645a6.96 6.96 0 0 1 .197 2.127c.122 1.64 1.175 3.052 2.228 4.328 1.696 2.055 3.497 4.024 5.396 5.899-.003-.003 2.882-3.522 2.826-4.136-.052-.58-1.023-1.123-1.375-1.59-.483-.637-.818-1.371-.983-2.149zm81.95 42.251c.242.649.424 1.32.542 2.005.701 3.507 1.143 7.063 1.579 10.616.116.948.232 1.898.268 2.853a13.42 13.42 0 0 1-1.311 6.561c-1 2.038-2.698 3.618-4.766 4.432-.636.234-1.526.276-1.804-.36a1.39 1.39 0 0 1 .006-.906c.251-.946.763-1.796 1.095-2.715.492-1.373.574-2.867.235-4.289-.13-.544-.406-1.151-.939-1.259.266 1.254.042 2.565-.623 3.65a1.26 1.26 0 0 1-.726.635c-.453.047-.878-.236-1.023-.681a3.01 3.01 0 0 1-.083-1.351 47.07 47.07 0 0 1 1.006-6.769c.594-2.444 1.535-4.856 1.474-7.376-.054-2.283-.936-4.524-.689-6.794.004-.14.047-.276.126-.391a.71.71 0 0 1 .276-.175 13.48 13.48 0 0 1 1.901-.649c.383-.1 1.69-.569 2.057-.359.297.17.389 1.187.537 1.531.263.609.613 1.174.862 1.791zM326 195.761a9 9 0 1 0 0-18 9 9 0 1 0 0 18z"/><path d="M334.684 193.371a11.03 11.03 0 0 0 .14 1.769c.128.591.308 1.17.54 1.728.309.909.745 1.769 1.295 2.554.559.79 1.396 1.338 2.341 1.532-6.322 2.977-13.072 4.937-20 5.807a8.48 8.48 0 0 0 2.653-2.845 8.28 8.28 0 0 0 .703-2.317c.59-3.36.29-6.817-.869-10.023-.115-.316-.228-.704-.01-.96a.91.91 0 0 1 .328-.215 20.55 20.55 0 0 1 8.696-1.629 34.82 34.82 0 0 1 2.284.094c.408.03 1.311-.057 1.636.244.388.359.194 1.473.206 1.96l.057 2.301z"/></g><path d="M338.95 200.544a9.96 9.96 0 0 0-11.85-2.928c-4.406 2.086-6.576 7.095-10.451 10.041-.881.654-1.821 1.228-2.806 1.714a7.8 7.8 0 0 1-1.846.725c-.725.158-1.481.136-2.202.308-1.374.401-2.545 1.302-3.277 2.522-.362.639-.765 1.254-1.204 1.843-.405.477-.908.862-1.336 1.319-1.541 1.642-1.959 4-2.311 6.216-1.205 1.259-2.521 2.41-3.931 3.439-.444.339-.936.609-1.461.801-1.355.436-2.85-.118-4.006-.946s-2.096-1.919-3.236-2.768c-1.046 1.484-2.14 2.972-3.256 4.406-.168.273-.425.482-.728.592-.209.699.293 1.423.669 2.05l2.019 3.364c.667 1.225 1.485 2.362 2.436 3.386a5.71 5.71 0 0 0 3.694 1.782 7.46 7.46 0 0 0 2.605-.495c3.847-1.283 7.378-3.331 11.037-5.071.663-.376 1.405-.592 2.168-.63a1.74 1.74 0 0 1 1.713 1.222c.419 2.102.836 4.196 1.413 6.26.544 1.947 1.05 3.905 1.516 5.872a25.3 25.3 0 0 1 .667 3.664c.06.702.067 1.407.073 2.111l.078 8.511c.008.917-.518 1.488-.924 2.312a5.4 5.4 0 0 0-.261 4.09c.228.664.584 1.278.836 1.933.61 1.583.587 3.327.555 5.022l-.073 3.884c-.018.161.011.324.085.468.239.371.815.154 1.179-.097l1.831-1.258a42.14 42.14 0 0 0 7.396.354c7.028-.101 14.057.177 21.068.663 2.34.163 4.758.339 6.969-.435 1.122-.393 2.156-1.021 3.303-1.336.473-.073.922-.256 1.31-.535.642-.589.472-1.622.21-2.45-.229-.723-.489-1.436-.78-2.139a12.55 12.55 0 0 1-.73-2.002c-.351-1.549-.01-3.339-.982-4.601-2.177-2.824-.636-7.168-1.55-10.605-.295-1.112-.732-2.184-1.009-3.301-.174-.701-.284-1.416-.394-2.13-.286-1.544-.428-3.111-.424-4.681.026-.785.126-1.566.226-2.346l.691-5.414a16.92 16.92 0 0 1 1.78 5.118 75.44 75.44 0 0 0 2.321 7.899l1.606 4.67a15.43 15.43 0 0 1 .821 2.722c.124.75.128 1.515.215 2.271a10.33 10.33 0 0 0 1.669 4.533 1.48 1.48 0 0 0 .781.687c.226.042.459.032.682-.027a27.18 27.18 0 0 0 7.028-2.412 2.8 2.8 0 0 0 1.187-.919c.598-.964-.07-2.167-.361-3.261-.311-1.172-.238-2.583-1.169-3.368-3.242-2.736-1.633-8.291-3.255-12.194-.285-.685-.617-1.352-.862-2.052-.188-.535-.324-1.086-.461-1.636a401.05 401.05 0 0 0-3.637-13.576c-1.339-4.671-1.196-9.536-2.882-14.095-.317-.956-.731-1.877-1.235-2.75a7.49 7.49 0 0 0-2.236-2.283c-2.447-1.605-4.917-2.972-7.791-3.554s-5.987-.492-8.92-.479z" fill="#d0cde1"/><path d="M317.599 188.89c-1.25-.669-.92-2.486-1.133-3.881-.437-2.87-3.7-4.573-4.466-7.375.88.108 1.773-.018 2.589-.364.157-.93-.028-1.886-.522-2.691 2.684-1.084 4.856-3.21 7.581-4.187 3.427-1.229 7.243-.475 10.7.667 1.725.57 3.52 1.31 4.563 2.79 1.145 1.625 1.128 3.764 1.066 5.748-.096 3.111-.22 6.333-1.613 9.121-1.774 3.548-6.797 6.835-10.947 5.874-1.726-.4-2.234-1.477-2.961-2.968-.453-.928-.623-2.005-1.642-2.488-.997-.471-2.204.296-3.215-.246z" class="F"/><g class="B C"><path d="M355.612 255.05l.021.74-.021-.74zm-40.086 9.281c.61 1.594.587 3.35.555 5.055l-.025 1.336c-.039-.92-.217-1.828-.53-2.695l-.836-1.944a5.48 5.48 0 0 1 .041-3.592c.228.628.557 1.216.795 1.84z"/></g><g class="B C"><path d="M314.483 175.73l-.009.004c-.076-.578-.232-1.131-.461-1.631l.421-.244c.11.613.126 1.249.049 1.871z"/></g><path d="M24 157.761l-2.175-1.984c-7.724-7.171-12.824-11.825-12.824-17.623-.039-2.228.816-4.378 2.37-5.959a8.11 8.11 0 0 1 5.879-2.433c2.606.014 5.074 1.186 6.75 3.204 1.675-2.018 4.143-3.19 6.749-3.204a8.11 8.11 0 0 1 5.879 2.433c1.554 1.581 2.409 3.731 2.37 5.959 0 5.798-5.099 10.452-12.824 17.623L24 157.761z" fill="#ff6584"/><path d="M28 152.761l-2.175-1.984c-7.724-7.171-12.824-11.825-12.824-17.623-.039-2.228.816-4.378 2.37-5.959a8.11 8.11 0 0 1 5.879-2.433c2.606.014 5.074 1.186 6.75 3.204 1.675-2.018 4.143-3.19 6.749-3.204a8.11 8.11 0 0 1 5.879 2.433c1.554 1.581 2.409 3.731 2.37 5.959 0 5.798-5.099 10.452-12.824 17.623L28 152.761z" stroke="#3f3d56" stroke-width="2"/><defs ><path id="B" d="M39.467 226.761l-.574 4.328-.493 4.405c-.348 4.903.301 9.825.13 14.737-.131 3.781-.748 7.56-.45 11.332.264 3.337 1.235 6.576 2.202 9.787l1.381 4.589a.89.89 0 0 0 .417.68c.24.151.538.184.807.089l6.113-.541c-.392-1.754-.827-3.582-1.037-5.365-.166-1.411-.266-2.828-.371-4.244l-1.062-13.235-.647-7.748c-.281-3.361-.565-6.742-1.431-10.006-.863-3.304-2.58-6.337-4.986-8.808z"/><path id="C" d="M50.847 376.201c-.356.699-.666 1.42-.928 2.159-.695 2.04-.8 4.227-.899 6.381a3.05 3.05 0 0 0 .113 1.236c.297.774 1.153 1.166 1.953 1.381 3.352.902 6.885.053 10.342-.256 3.393-.304 6.849-.084 10.172-.833a5.03 5.03 0 0 0 1.409-.489 4.38 4.38 0 0 0 1.78-2.326 2.96 2.96 0 0 0 .202-.764c.11-1.133-.877-2.117-1.952-2.49s-2.244-.311-3.376-.427c-4.787-.492-8.648-4.135-9.418-8.887-.04-.247-5.596-.101-6.181.22-.684.375-1.099 1.313-1.484 1.947-.623 1.023-1.201 2.073-1.733 3.148z"/><path id="D" d="M77.314 222.761c.258.269.474.578.641.914 1.719 3.202 1.741 7.034 1.822 10.687.091 4.112.311 8.22.53 12.327l.657 12.283c.063 1.174.126 2.349.286 3.512.773.2.805 1.223.715 2.034-.553 5.013-1.929 10.173-.488 14.996.055.249.171.479.337.669a3.79 3.79 0 0 0-2.236-.031c-.718.155-1.409.424-2.125.591-.911.213-1.943.304-2.565 1.018-.702-2.167-1.261-4.38-1.674-6.625-.341-2.04-.434-4.16-1.245-6.055-.328-.766-.765-1.475-1.164-2.204-2.1-3.834-3.129-8.17-4.134-12.444-.451-2.027-.559-4.118-.32-6.182a22.89 22.89 0 0 0 .251-2.845c-.064-1.005-.193-2.005-.385-2.993a20.59 20.59 0 0 1 .582-8.666c.753-2.61 1.413-5.356 2.987-7.548s4.872-3.401 7.528-3.438z"/></defs></svg>