<svg xmlns="http://www.w3.org/2000/svg" width="480" height="317" fill="none" xmlns:v="https://vecta.io/nano"><path d="M99.08 137.824l-44.08.468s23.511-30.906 43.992-19.456S143 137.889 143 137.889l-43.92-.065z" fill="#f2f2f2"/><path d="M371 147.292a5 5 0 1 0 0-10 5 5 0 1 0 0 10z" fill="#ff6584"/><g fill="#3f3d56"><path d="M333.99 221.606l37.987-43.621 1.172 1.021-37.987 43.621-1.172-1.021z"/><path d="M373 186.292a8 8 0 1 0 0-16 8 8 0 1 0 0 16zm-23.714 19s15.36-19.573-4.286-33l4.286 33zM94.578 239.696c28.148 52.191 87.889 74.596 87.889 74.596s14.103-62.214-14.045-114.405-87.889-74.595-87.889-74.595-14.103 62.213 14.045 114.404z"/></g><path d="M113.621 222.752C164.431 253.408 184 314.3 184 314.3s-62.811 11.188-113.621-19.468S0 203.284 0 203.284s62.811-11.189 113.621 19.468z" fill="#111b47"/><path d="M315.194 223.022C264.108 253.259 244 314.042 244 314.042s62.719 11.757 113.806-18.48S429 204.542 429 204.542s-62.719-11.758-113.806 18.48z" fill="#3f3d56"/><path d="M333.739 241.512c-28.605 51.915-88.532 73.78-88.532 73.78s-13.55-62.306 15.054-114.221 88.532-73.779 88.532-73.779 13.55 62.306-15.054 114.22z" fill="#111b47"/><g fill="#2f2e41"><path d="M229.881 99.332c-6.015-5.443-6.857-14.589-1.937-21.04-.314.295-.621.601-.915.926-5.779 6.394-5.282 16.263 1.109 22.043s16.255 5.284 22.033-1.109a15.67 15.67 0 0 0 .829-1.004c-5.921 5.545-15.102 5.625-21.119.184z"/><path d="M215.5 110.292c17.949 0 32.5-14.551 32.5-32.5s-14.551-32.5-32.5-32.5-32.5 14.551-32.5 32.5 14.551 32.5 32.5 32.5z"/></g><g fill="#ffb8b8"><path d="M206.238 119.323l.974-2.506-17.736 14.84-21.438 11.949-11.694-42.399c-.78-.771-14.812-30.065-21.049-16.189s12.083 21.97 12.083 21.97.585 50.687 19.295 50.302 41.903-17.153 42.293-18.695-2.728-19.272-2.728-19.272zm5.262-8.031c10.77 0 19.5-8.731 19.5-19.5s-8.73-19.5-19.5-19.5-19.5 8.73-19.5 19.5 8.73 19.5 19.5 19.5z"/><path d="M214.879 106.042s5.064 6.568 3.506 7.341-10.517 1.159-15.971 7.727 6.622 23.182 6.622 23.182L255 113.769l-18.697-6.182s-12.854-6.954-12.465-14.295l-8.959 12.75z"/></g><path d="M277 316.292h-51.63c-2.925-21.338-4.277-40.892-4.277-40.892s-.754 19.669-2.762 40.892H152c9.403-62.841 53.978-130.985 53.978-130.985s.388-9.282 1.551-10.83-6.588-1.93-10.078-13.53c-2.128-7.081-.215-11.715 1.604-14.246.624-.912 1.392-1.717 2.274-2.384 0 0 .776-8.117 0-9.278-.099-.152.666-.685 2.081-1.496 1.179-.68 2.809-1.553 4.759-2.557 11.169-5.779 32.788-16.003 40.194-19.486l2.568-1.208 13.176 4.639c10.461 3.477 10.461 25.521 10.461 25.521l-.592.899-15.812 23.9-9.172 13.87c2.327 1.542-2.322 11.212-2.322 11.212s6.625 9.497 12.012 23.994c3.047 8.068 5.125 16.468 6.19 25.025.679 5.545.813 11.143.398 16.714-1.436 18.628 4.948 41.268 11.73 60.226z" fill="#2f2e41"/><path d="M263.951 116.726c-.86-.489-1.888-.569-2.812-.22s-1.647 1.093-1.978 2.032c-1.154 3.208-2.323 9.896-1.906 23.801l1.149 43.009v38.747s-16.853 37.197-7.66 37.197 15.703-29.448 15.703-29.448 8.427-44.558 5.745-52.308c0 0 7.56-53.535-8.241-62.81z" fill="#ffb8b8"/><g fill="#2f2e41"><path d="M209.5 86.292c9.113 0 16.5-5.149 16.5-11.5s-7.387-11.5-16.5-11.5-16.5 5.149-16.5 11.5 7.387 11.5 16.5 11.5zm26.5-21c8.837 0 16-7.163 16-16s-7.163-16-16-16-16 7.163-16 16 7.163 16 16 16z"/><path d="M247 60.676c-8.318-.001-15.248-6.254-15.94-14.385-.037.432-.06.867-.06 1.308 0 8.667 7.163 15.692 16 15.692s16-7.026 16-15.692a15.29 15.29 0 0 0-.06-1.308c-.692 8.13-7.622 14.383-15.94 14.385z"/></g><path d="M230.389 88.31c.729-.174.997-1.665.599-3.33s-1.31-2.874-2.039-2.7-.997 1.665-.599 3.33 1.311 2.874 2.039 2.7z" fill="#ffb8b8"/><path d="M230 88.292a1 1 0 1 0 0-2 1 1 0 1 0 0 2z" fill="#f2f2f2"/><path d="M40 147.792a6.5 6.5 0 0 0 6.5 6.5 6.51 6.51 0 0 0 6.5-6.5 6.5 6.5 0 1 0-13 0zm1.083 0a5.42 5.42 0 0 1 5.417-5.417c2.99.004 5.413 2.427 5.417 5.417a5.42 5.42 0 0 1-5.417 5.416 5.42 5.42 0 0 1-5.417-5.416zM304 108.292h14v-14h-14v14zm12.923-1.077h-11.846V95.369h11.846v11.846z" fill="#3f3d56" fill-rule="evenodd"/><path d="M436.08 180.824l-44.08.468s23.511-30.906 43.992-19.456S480 180.889 480 180.889l-43.92-.065zm-75-105l-44.08.467s23.511-30.906 43.992-19.455S405 75.889 405 75.889l-43.92-.065zM131.358 89.425L75.236 60.453a7.85 7.85 0 0 1-3.371-10.549l13.221-25.813a3.09 3.09 0 0 1 1.884-1.56l44.235-12.949c3.672-1.075 7.541.922 8.806 4.546l14.534 41.621a8.14 8.14 0 0 1-.439 6.393L141.865 86.04a7.81 7.81 0 0 1-4.555 3.877c-1.971.635-4.112.457-5.952-.493z" fill="#f2f2f2"/><path opacity=".1" d="M133.347 79.868L76.806 55.627c-1.822-.941-.114.505.823-1.324l7.108-29.011L154 61.059l-17.511 21.743c-.936 1.829-1.32-1.994-3.142-2.935z" fill="#000"/><path d="M86.157 62.932a8.19 8.19 0 0 1-3.536-11.023l19.04-37.027c2.067-4.021 7.002-5.604 11.023-3.536l37.027 19.04a8.19 8.19 0 0 1 3.536 11.023l-19.039 37.027a8.19 8.19 0 0 1-11.024 3.537l-37.027-19.04z" fill="#111b47"/><path opacity=".1" d="M145 56.877l-14.542 28.414L79 58.706l14.542-28.414 19.335 25.788 32.123.798z" fill="#000"/><path d="M112.252 57.949L87.288 24.894a1.52 1.52 0 0 0-1.34-.597c-.52.044-.98.352-1.219.815L70.524 52.668a4.71 4.71 0 0 0-.298 3.601 4.72 4.72 0 0 0 2.342 2.756L134.46 90.77c1.117.573 2.415.679 3.61.297a4.73 4.73 0 0 0 2.763-2.336l13.962-27.083a1.84 1.84 0 0 0-.054-1.785 1.85 1.85 0 0 0-1.545-.903l-40.944-1.01zm-4.84-43.325l14.427 7.418-1.049 2.04-14.427-7.418 1.049-2.04zm-4.987 6.832l42.843 22.031-.599 1.166-42.843-22.031.599-1.166zm-2.023 3.935l42.843 22.031-.6 1.166-42.843-22.03.6-1.166zm-2.023 3.935l42.843 22.03-.6 1.166-42.843-22.03.6-1.166z" fill="#f2f2f2"/><path d="M113.073 12.574c1.7-3.306.403-7.361-2.897-9.058s-7.352-.392-9.052 2.913-.403 7.361 2.897 9.058 7.352.393 9.052-2.913z" fill="#fff"/><path fill-rule="evenodd" d="M99.887 5.634c2.021-3.928 6.846-5.475 10.777-3.455 3.919 2.029 5.464 6.841 3.457 10.771-2.021 3.928-6.846 5.475-10.776 3.455a8 8 0 0 1-3.458-10.771zm1.933 1.179l1.772 5.52 9.949-3.184-.497-1.548-8.398 2.693-1.277-3.977-1.549.497z" fill="#57b894"/></svg>